<svg xmlns="http://www.w3.org/2000/svg" fill="none" viewBox="-0.5 -0.5 48 48" height="48" width="48"><path fill="#ffffff" d="M41.647875 23.731083333333334a6.8189166666666665 6.8189166666666665 0 0 0 -7.10875 -9.014208333333332 11.691249999999998 11.691249999999998 0 0 0 -22.716666666666665 3.8677083333333333 10.747333333333334 10.747333333333334 0 1 0 0 21.492708333333333h25.333a8.800749999999999 8.800749999999999 0 0 0 4.492416666666666 -16.346208333333333Z" stroke-width="1"></path><path fill="#e3e3e3" d="M37.12608333333333 31.76025H11.795041666666666a10.727749999999999 10.727749999999999 0 0 1 -9.88175 -6.587833333333333 10.75125 10.75125 0 0 0 9.88175 14.904874999999999h25.331041666666668a8.779208333333333 8.779208333333333 0 0 0 7.69625 -12.985708333333333 8.738083333333332 8.738083333333332 0 0 1 -7.69625 4.668666666666666Z" stroke-width="1"></path><path stroke="#191919" stroke-linecap="round" stroke-linejoin="round" d="M41.647875 23.731083333333334a6.8189166666666665 6.8189166666666665 0 0 0 -7.10875 -9.014208333333332 11.691249999999998 11.691249999999998 0 0 0 -22.716666666666665 3.8677083333333333 10.747333333333334 10.747333333333334 0 1 0 0 21.492708333333333h25.333a8.800749999999999 8.800749999999999 0 0 0 4.492416666666666 -16.346208333333333Z" stroke-width="1"></path></svg>